HIERARCHY
ROOT Hips
{
  OFFSET -69.4423 88.0299 51.6846
  CHANNELS 6 Xposition Yposition Zposition Zrotation Xrotation Yrotation
  JOINT Spine
  {
    OFFSET 12.0259 -0.162853 1.93176e-005
    CHANNELS 3 Zrotation Xrotation Yrotation
    JOINT Spine1
    {
      OFFSET 15.3169 -0.0121909 0
      CHANNELS 3 Zrotation Xrotation Yrotation
      JOINT Spine2
      {
        OFFSET 15.3176 -0.0121922 0
        CHANNELS 3 Zrotation Xrotation Yrotation
        JOINT Neck
        {
          OFFSET 19.9142 1.56236 0
          CHANNELS 3 Zrotation Xrotation Yrotation
          JOINT Head
          {
            OFFSET 6.92646 0 0
            CHANNELS 3 Zrotation Xrotation Yrotation
            End Site
            {
              OFFSET 20.7666 0 0
            }
          }
          JOINT LeftShoulder
          {
            OFFSET -4.94072 -1.14703 8.14416
            CHANNELS 3 Zrotation Xrotation Yrotation
            JOINT LeftArm
            {
              OFFSET 14.108 0 -2.74767e-005
              CHANNELS 3 Zrotation Xrotation Yrotation
              JOINT LeftForeArm
              {
                OFFSET 28.5802 -0.0783412 -0.0284884
                CHANNELS 3 Zrotation Xrotation Yrotation
                JOINT LeftHand
                {
                  OFFSET 27.092 0 0
                  CHANNELS 3 Zrotation Xrotation Yrotation
                  End Site
                  {
                    OFFSET 9.55928 -0.186424 0.145352
                  }
                }
              }
            }
          }
          JOINT RightShoulder
          {
            OFFSET -7.15748 -1.33027 -6.24935
            CHANNELS 3 Zrotation Xrotation Yrotation
            JOINT RightArm
            {
              OFFSET 14.108 0 1.82997e-005
              CHANNELS 3 Zrotation Xrotation Yrotation
              JOINT RightForeArm
              {
                OFFSET 28.5802 -0.0707221 2.30684e-005
                CHANNELS 3 Zrotation Xrotation Yrotation
                JOINT RightHand
                {
                  OFFSET 27.092 0 -1.30073e-005
                  CHANNELS 3 Zrotation Xrotation Yrotation
                  End Site
                  {
                    OFFSET 9.55929 -0.186417 -0.145354
                  }
                }
              }
            }
          }
        }
      }
    }
  }
  JOINT LeftUpLeg
  {
    OFFSET 0.00499725 -0.534999 8.837
    CHANNELS 3 Zrotation Xrotation Yrotation
    JOINT LeftLeg
    {
      OFFSET 39.9035 -0.00124594 0.000252775
      CHANNELS 3 Zrotation Xrotation Yrotation
      JOINT LeftFoot
      {
        OFFSET 39.6689 0 0
        CHANNELS 3 Zrotation Xrotation Yrotation
        JOINT LeftToe
        {
          OFFSET 10.1624 13.6296 0
          CHANNELS 3 Zrotation Xrotation Yrotation
          End Site
          {
            OFFSET 8.38147 0 0
          }
        }
      }
    }
  }
  JOINT RightUpLeg
  {
    OFFSET 0.00499725 -0.535 -8.837
    CHANNELS 3 Zrotation Xrotation Yrotation
    JOINT RightLeg
    {
      OFFSET 39.9036 -0.000268477 0.000106433
      CHANNELS 3 Zrotation Xrotation Yrotation
      JOINT RightFoot
      {
        OFFSET 39.6689 1.17892e-005 0
        CHANNELS 3 Zrotation Xrotation Yrotation
        JOINT RightToe
        {
          OFFSET 10.1624 13.6296 0
          CHANNELS 3 Zrotation Xrotation Yrotation
          End Site
          {
            OFFSET 8.38147 0 0
          }
        }
      }
    }
  }
}
MOTION
Frames:	18
Frame Time:	0.0333333
49.9296 87.8702 -86.7254 -90.5621 -3.77812 -177.664 0.415805 -1.06227 -0.508721 0.822401 -2.12774 -1.00982 0.822385 -2.12775 -1.00983 -5.51951 -12.656 -15.6275 54.47 -10.5362 27.0905 -179.329 -13.031 -98.0743 -7.55508 7.20937 79.0777 -17.5011 1.39245 -11.1568 8.38827 -81.161 11.0678 -179.454 -14.8969 69.6367 -9.33526 -3.68374 -85.6716 -24.6066 -2.95164 15.001 5.4243 83.7285 -5.32866 -1.71433 -4.59005 -172.774 -19.3604 0.749586 -1.75688 0.532261 -2.88519 0.0121614 90 -1.59028e-015 7.95139e-016 -9.53057 7.01289 162.293 -31.9813 -0.318837 0.634133 -2.86049 1.58377 0.13277 90 -3.18055e-015 -1.68967e-015 
50.2564 87.7167 -84.4893 -90.6131 -4.87335 -177.793 0.398162 -1.0708 -0.543826 0.78634 -2.14484 -1.08032 0.78634 -2.14485 -1.08033 -5.05554 -12.766 -15.5416 53.8697 -10.3765 27.5165 -179.788 -12.9986 -98.1153 -6.88119 7.04725 78.6266 -17.8782 1.44543 -11.3446 9.21124 -80.6542 11.8423 -179.93 -14.8973 69.647 -10.7576 -3.83918 -86.2579 -24.7435 -2.98805 15.0939 5.42404 83.3313 -5.33955 -1.90259 -6.49617 -171.339 -19.8995 0.722262 -1.74147 -1.04612 -3.38259 -0.268595 90 0 7.95139e-016 -9.9242 4.59688 163.669 -32.6958 -0.347976 0.637932 -0.302599 2.00506 -0.043399 90 3.18055e-015 -0 
50.56 87.7916 -81.8489 -90.4285 -5.53047 -179.035 0.461756 -1.01861 -0.360566 0.917313 -2.03962 -0.712926 0.917302 -2.03961 -0.71294 -4.81212 -12.9925 -15.4119 53.8621 -10.5508 27.858 179.952 -13.0824 -98.092 -6.46566 6.77041 78.5065 -18.7326 1.56547 -11.8365 10.5874 -82.0829 13.2512 179.801 -15.0598 69.7198 -11.6961 -3.66473 -86.5011 -24.4424 -2.90813 14.9267 5.0962 83.4008 -4.98876 -2.74411 -7.70889 -168.729 -21.702 0.704671 -1.62835 -3.05273 -4.1349 -0.748561 90 6.36111e-015 2.38542e-015 -9.75182 2.07776 166.531 -32.1808 -0.373917 0.696248 1.24842 2.59549 -0.101925 90 3.18055e-015 1.59028e-015 
50.8194 88.0649 -78.9188 -90.0182 -5.82213 178.462 0.654178 -0.913202 0.125769 1.31061 -1.82442 0.262158 1.31062 -1.82443 0.262142 -4.93435 -13.0864 -15.3285 53.9442 -10.6419 28.0259 -179.922 -13.1175 -98.0656 -6.44889 6.3272 79.0617 -19.8996 1.74686 -12.5321 12.1896 -82.91 14.9362 179.937 -15.1903 69.787 -12.5295 -3.14701 -86.4329 -24.0155 -2.80325 14.6942 4.20678 82.6092 -4.06081 -3.00001 -9.42612 -164.65 -24.2101 0.672636 -1.44956 -4.96081 -4.59764 -1.26647 90 0 -0 -8.64448 1.09386 171.245 -30.8633 -0.398759 0.780215 1.83438 4.12269 0.117027 90 -1.59028e-015 -6.75868e-015 
50.8872 88.2913 -76.3077 -89.9306 -5.53865 177.266 0.771993 -0.705998 0.328444 1.5482 -1.4069 0.666596 1.54821 -1.4069 0.666584 -4.96705 -13.1274 -15.4729 53.9804 -10.1204 28.7416 -179.976 -13.1786 -98.3031 -7.10726 6.37896 79.7532 -21.3782 1.98288 -13.4011 14.5715 -84.2511 17.2472 179.945 -15.3274 69.6399 -12.4253 -2.31507 -86.4038 -23.4107 -2.66563 14.3641 3.50579 81.6332 -3.32404 -3.62712 -10.3155 -162.375 -25.9271 0.571258 -1.325 -7.68626 -5.79934 -2.16946 90 0 -6.36111e-015 -8.3786 1.19817 174.344 -30.0769 -0.452507 0.774709 1.58896 5.17559 0.366209 90 4.77083e-015 4.77083e-015 
50.9487 88.6174 -73.939 -89.8166 -5.34102 176.564 0.919169 -0.522549 0.45827 1.84261 -1.03715 0.925075 1.8426 -1.03712 0.925059 -5.21897 -13.0929 -15.437 53.7165 -10.0734 28.8894 -179.748 -13.2101 -98.3118 -8.98528 6.48972 80.6362 -22.9792 2.25237 -14.3319 22.7388 -86.1433 25.4979 -179.762 -15.4252 69.7633 -13.0117 -1.81936 -86.0862 -23.4401 -2.66417 14.367 3.18826 81.1507 -2.99051 -4.42428 -11.5026 -161.286 -28.2091 0.443569 -1.18838 -10.4286 -7.9622 -3.51196 90 1.59028e-015 -3.18055e-015 -7.63446 1.01541 176.49 -28.5898 -0.513808 0.7601 1.47426 4.33005 0.236569 90 0 -4.96962e-016 
51.054 88.9927 -71.7377 -89.7472 -5.36725 176.061 0.971155 -0.408137 0.567333 1.9464 -0.806127 1.14168 1.94638 -0.806145 1.14167 -5.12414 -13.0679 -15.2813 53.5322 -10.1502 28.6728 -179.826 -13.1506 -98.2492 -10.4042 6.51355 81.6168 -23.8891 2.4133 -14.8846 17.8705 -85.393 20.5853 -179.806 -15.3975 69.9181 -14.1269 -2.07295 -85.5023 -23.8089 -2.73006 14.5421 3.01786 81.3461 -2.79842 -5.41163 -12.6846 -161.18 -30.3389 0.295301 -1.03545 -13.1225 -11.2913 -5.42663 90 -1.59028e-015 3.18055e-015 -7.11969 0.466934 178.462 -27.5396 -0.557724 0.742379 1.25202 4.52374 0.316244 90 -1.59028e-015 2.48481e-016 
51.109 89.2272 -69.7915 -89.6413 -5.20669 175.939 1.03259 -0.267357 0.633888 2.06811 -0.522724 1.27266 2.0681 -0.522749 1.27264 -5.21077 -12.8954 -15.0549 53.3041 -9.95381 28.3812 -179.652 -12.9795 -98.0331 -11.4526 6.03629 82.5046 -24.2746 2.48693 -15.1673 13.6788 -84.3725 16.3066 -179.615 -15.2883 70.1758 -15.1841 -2.32115 -84.494 -24.2665 -2.83901 14.7952 3.5766 82.0157 -3.39394 -7.03409 -12.5494 -162.1 -32.9405 0.355233 -0.986766 -10.2917 -12.0221 -4.81586 90 1.59028e-015 -6.36111e-015 -6.87217 0.740631 179.987 -26.9295 -0.586149 0.719957 0.817356 4.89598 0.426361 90 1.59028e-015 1.11816e-015 
51.0865 89.3242 -68.3719 -89.5723 -5.15171 176.527 1.04522 -0.183957 0.553375 2.0922 -0.357276 1.11018 2.09219 -0.357293 1.11016 -5.1836 -12.7971 -14.8266 53.3322 -9.79838 28.1471 -179.621 -12.8578 -97.8111 -12.7184 5.88777 83.2465 -24.4495 2.51825 -15.3196 11.5683 -83.7102 14.1357 -179.559 -15.2113 70.4383 -15.0799 -2.50458 -83.4864 -24.6358 -2.91687 14.9731 3.61658 82.215 -3.437 -8.79569 -12.2051 -164.68 -35.025 0.57602 -1.02031 -5.19819 -8.26191 -2.30167 90 1.59028e-015 3.18055e-015 -7.21013 0.39799 -179.716 -27.4741 -0.594639 0.688856 1.15476 4.46588 0.224771 90 7.95139e-016 8.44835e-016 
51.1507 89.3187 -67.0576 -89.4396 -5.15104 177.186 1.07422 -0.244797 0.485412 2.1505 -0.479987 0.975513 2.15049 -0.479998 0.975497 -5.44047 -12.2538 -15.7541 53.3278 -8.23565 28.4317 -179.459 -12.4486 -98.6728 -13.7306 5.88239 83.9122 -24.3881 2.50748 -15.3245 10.8437 -83.4544 13.4008 -179.39 -14.8182 69.57 -14.1422 -2.25017 -82.4459 -24.6379 -2.92312 14.9655 3.8421 82.2753 -3.66233 -10.2857 -10.9744 -167.548 -36.1003 0.771237 -1.03402 0.531016 -0.563034 0.421529 90 0 -3.77691e-015 -7.55784 0.973277 -179.259 -28.5623 -0.598818 0.651764 1.82562 5.21481 0.186595 90 3.97569e-016 -4.96962e-016 
51.1638 89.2701 -66.0849 -89.3517 -5.14375 178.127 1.10295 -0.296296 0.378143 2.20788 -0.584817 0.762087 2.20787 -0.584756 0.762069 -5.74617 -12.1197 -15.2935 52.9328 -8.94936 27.4276 -179.026 -12.3653 -98.0929 -14.1688 5.58744 84.5232 -24.0236 2.45339 -15.1729 10.5919 -83.0965 13.1494 -178.927 -14.7431 70.1223 -12.2833 -1.87678 -81.6533 -24.8053 -2.95624 15.0324 3.88159 82.7879 -3.70378 -11.636 -8.74663 -171.31 -36.6812 0.835509 -0.984177 5.32157 5.40353 1.43494 90 3.18055e-015 -7.95139e-016 -8.12977 0.958443 -179.493 -29.9722 -0.602602 0.604271 2.78929 5.53328 0.0143776 90 0 -1.14301e-015 
51.2424 89.169 -65.1718 -89.1407 -4.59999 179.073 1.12873 -0.177859 0.23296 2.25825 -0.350781 0.469538 2.25823 -0.350802 0.469526 -5.68907 -12.0041 -14.9311 52.3987 -9.17238 26.894 -178.974 -12.2379 -97.6956 -15.0139 5.48225 84.7283 -23.5553 2.36926 -14.9443 9.64083 -82.6019 12.181 -178.859 -14.6174 70.4968 -10.7555 -1.83039 -80.9154 -25.0776 -3.02546 15.173 4.64834 83.6685 -4.51686 -12.3833 -4.72746 -174.92 -37.0709 0.802576 -0.894482 9.39801 10.0422 1.30178 90 0 -0 -8.96854 1.54678 -179.711 -31.7266 -0.612535 0.551836 3.53668 5.41251 -0.177762 90 -3.97569e-016 -3.97569e-016 
51.3344 88.9141 -64.2026 -89.0144 -3.92354 179.308 1.14983 -0.121602 0.286323 2.30027 -0.236975 0.575186 2.30025 -0.236979 0.575173 -6.04309 -11.6043 -15.2706 52.1203 -8.74016 26.4318 -178.601 -11.9639 -97.9598 -16.0168 5.45144 85.0454 -23.3216 2.32625 -14.8353 9.87268 -82.717 12.421 -178.488 -14.3325 70.2263 -10.2085 -2.05041 -80.014 -25.4804 -3.12115 15.3769 6.38042 85.1843 -6.27346 -12.6835 0.515996 -177.226 -37.5391 0.733209 -0.777373 12.012 14.4307 0.617884 90 8.44835e-016 4.77083e-015 -9.49067 1.73146 -179.267 -33.0652 -0.618285 0.497446 4.30214 5.10514 -0.367996 90 0 9.93923e-017 
51.3689 88.5952 -63.2352 -89.1716 -3.70166 179.071 1.10142 -0.106368 0.43221 2.20363 -0.20393 0.866538 2.20364 -0.203924 0.866528 -6.32964 -11.5194 -14.982 51.9326 -9.44234 25.4869 -178.237 -11.9177 -97.6303 -17.1425 5.5124 85.4703 -23.2094 2.30496 -14.7805 10.8828 -82.8252 13.4339 -178.117 -14.2422 70.5779 -10.4719 -2.86424 -79.0741 -26.1015 -3.26209 15.6877 9.79476 86.8366 -9.71675 -12.5184 3.34582 -178.833 -36.9951 0.740846 -0.72952 12.0268 17.3276 0.239955 90 2.78299e-015 3.18055e-015 -10.3681 1.001 -178.595 -34.2137 -0.61825 0.46347 4.81499 3.73179 -0.648299 90 0 1.98785e-016 
51.4903 88.3499 -62.2514 -89.2252 -4.06193 178.414 1.01729 -0.244857 0.628598 2.03722 -0.47803 1.26162 2.03721 -0.478011 1.2616 -5.99377 -11.3082 -14.8488 51.5255 -8.8674 25.3934 -178.492 -11.6284 -97.6028 -17.4386 5.66184 85.6937 -23.1415 2.2872 -14.7326 11.2286 -83.278 13.8475 -178.369 -13.9118 70.608 -10.2334 -3.4375 -78.3473 -26.1975 -3.28227 15.7204 9.80249 86.8235 -9.72897 -12.0539 2.33061 -179.792 -35.5385 0.8928 -0.784442 6.82853 20.6351 1.20468 90 -4.77083e-015 -0 -10.5637 -0.543862 -177.835 -34.8688 -0.607819 0.443395 5.55129 2.22917 -0.945634 90 -3.97569e-016 -3.97569e-016 
51.6035 88.189 -61.2789 -89.1245 -4.22058 178.198 0.980379 -0.334445 0.698073 1.96482 -0.65632 1.40195 1.96481 -0.656349 1.40194 -6.07972 -11.4989 -14.5533 52.0895 -9.23629 25.3814 -178.38 -11.8021 -97.2879 -17.9242 5.78462 85.6095 -22.9014 2.19916 -14.5869 6.4258 -83.5936 9.04106 -178.265 -14.0633 70.8847 -9.46737 -3.5894 -77.9446 -26.1097 -3.26459 15.6764 8.52421 86.3977 -8.44171 -10.6502 0.373763 179.863 -33.9036 0.962028 -0.94245 6.82524 11.8845 1.41333 90 7.95139e-016 3.18055e-015 -10.6391 -1.21373 -177.302 -35.4963 -0.592309 0.436958 6.72295 1.72112 -1.1433 90 6.95746e-016 -3.97569e-016 
51.5253 87.8662 -60.3565 -89.2889 -4.61955 178.516 0.93225 -0.55163 0.635863 1.8707 -1.09234 1.28086 1.8707 -1.09235 1.28085 -6.40563 -11.4557 -14.6802 52.4742 -8.75614 25.8636 -178.082 -11.8471 -97.3622 -18.5238 5.98661 85.2891 -22.7989 2.17062 -14.497 7.20166 -84.0899 9.8367 -177.97 -14.1194 70.7861 -7.18085 -3.02719 -77.9603 -25.8998 -3.2054 15.5461 6.08285 85.5966 -5.92648 -9.94173 -0.594708 179.801 -32.11 0.971469 -1.00671 6.84708 12.0053 1.4431 90 -3.97569e-016 1.59028e-015 -11.8316 -2.7172 -177.461 -37.4807 -0.564877 0.385368 8.03255 0.450212 -1.38949 90 7.70291e-016 7.95139e-016 
51.1708 87.4415 -59.5154 -90.2533 -5.0716 178.537 0.736334 -0.754424 0.532488 1.47985 -1.50137 1.07494 1.47985 -1.50139 1.07492 -6.5237 -11.476 -14.4544 52.2988 -8.50765 26.3424 -177.958 -11.8965 -97.1812 -18.7065 6.60135 84.5095 -23.4888 2.29217 -14.805 7.58748 -82.6739 10.2578 -177.831 -14.1712 71.0859 -5.3557 -2.81711 -79.2082 -26.2737 -3.30767 15.777 4.37282 83.6683 -4.27713 -10.6866 -0.528055 -179.732 -31.4135 0.946868 -1.03075 8.04462 12.1718 1.36036 90 -1.98785e-015 1.59028e-015 -14.303 -5.77825 -178.162 -40.2311 -0.501997 0.298031 9.50354 -2.98942 -1.69932 90 -2.98177e-016 -0 
